<svg xmlns="http://www.w3.org/2000/svg" xmlns:xlink="http://www.w3.org/1999/xlink" xmlns:inkscape="http://www.inkscape.org/namespaces/inkscape" version="1.1" width="1172.0003" height="747.45" viewBox="0 0 1172.0003 747.45">
<g inkscape:groupmode="layer" inkscape:label="&#x0421;&#x043B;&#x043E;&#x0439; 1">
<path transform="matrix(1,0,0,-1,1,746.45)" d="M0 745.45H1170.0003V0H0Z" fill="#fdde5a" fill-rule="evenodd"/>
<path transform="matrix(1,0,0,-1,1,746.45)" d="M453.8971 484.1529C464.3688 484.0373 474.7572 487.2637 485.3863 485.0989 474.8105 486.3464 464.6231 481.2333 453.8971 484.1529ZM902.3142 495.072C896.0281 497.715 888.3082 495.0437 881.8257 499.5981 886.2409 503.4813 891.1208 500.7971 895.6366 502.7511 893.6186 495.9689 900.1369 498.0161 902.3142 495.072ZM909.2217 575.6151C917.5572 577.7152 913.523 581.9298 913.176 583.8707 911.0214 595.8434 911.49 597.329 923.5273 601.3466 914.4499 607.7041 903.3352 604.5401 893.1506 608.8751 900.788 610.5858 908.4413 611.284 913.9071 610.9991 920.628 610.6473 926.6173 609.7158 932.5817 611.8311 933.2053 614.5248 931.8297 615.4466 930.4866 616.0263 924.7119 618.5197 923.7912 621.0383 930.1246 623.9931 933.1736 625.409 930.642 627.7898 931.8073 629.49 928.8037 630.7033 927.0459 627.6569 924.2144 629.2361 928.749 632.7105 925.4339 634.6383 921.7091 635.9468 925.7202 639.8107 933.4395 635.7095 934.2652 643.155 930.2199 645.7414 925.2955 643.866 919.9638 645.7348 927.9507 649.4168 926.9323 651.1912 920.6235 655.7749 914.2648 660.3849 907.8225 665.5609 902.327 671.3478 900.1599 673.6303 900.8569 676.453 903.4055 678.371 904.7477 679.3787 906.8207 679.4929 907.5563 681.306 906.8689 682.5016 905.6078 682.5339 904.3724 682.9007 901.0655 683.8807 895.9901 681.7992 895.3294 687.8072 895.1757 689.2183 892.5633 690.891 889.8766 691.0447 870.0783 692.1507 850.3943 694.4346 830.5078 694.9216 815.6407 695.2867 800.7769 696.975 785.8505 697.1071 758.8287 697.3495 821.9599 710.5652 794.9197 710.1544 769.9433 709.776 745.2876 706.4323 720.3586 705.7891 697.4325 705.1989 674.5958 701.6088 651.7069 699.4443 645.8695 698.8878 639.953 698.1656 634.1346 698.4938 624.0455 699.0678 615.0178 694.2643 605.0866 694.2104 588.8818 694.1208 572.7362 692.2678 556.8919 689.6075 549.2775 688.3277 541.4856 686.6793 533.8542 685.8473 522.775 684.6375 511.6476 683.5484 500.5219 682.5969 496.4162 682.2425 491.9224 681.8474 488.4316 680.7858 480.329 678.316 471.4339 679.9569 463.765 675.724 460.5922 673.9727 457.0157 676.7773 453.2581 676.2932 376.776 666.3776 421.969 665.5637 346.9986 652.8076 339.0032 651.454 329.4006 649.0089 324.7554 640.7478 323.0895 637.7859 319.9425 637.3947 317.5053 635.7682 317.1855 632.7071 320.6554 635.0842 321.1126 632.9214 317.5829 630.1752 314.7094 626.9494 321.054 623.5174 318.3395 618.9111 313.2363 617.01 308.2524 614.5761 309.0005 610.6952 310.3515 607.0343 313.7698 603.4005 305.0357 602.68 307.713 593.6794 302.3923 590.0397 301.136 589.1814 302.5565 586.3932 304.7712 585.5491 308.9718 583.9489 312.9843 581.7234 318.4206 582.1024 314.4438 576.2149 313.6008 572.6214 322.13 569.5483 326.3012 568.042 331.6867 563.6534 333.3892 557.4954 334.2889 554.22 332.8384 553.8781 330.9766 552.7094 332.729 552.6539 334.4729 552.5957 336.2207 552.5393 329.7594 550.362 329.3603 545.4437 329.368 540.2194 329.3799 531.7696 338.2724 535.8574 341.9087 531.9028 340.3633 530.1587 338.6395 528.2033 337.2089 526.5887 338.0618 521.1822 348.7689 526.0703 345.4067 517.7049 351.3257 517.7608 356.3949 520.8993 361.9568 518.2475 361.0032 514.9363 361.9185 513.428 366.3746 513.0261 413.0855 508.8158 350.6652 496.8964 398.9741 495.6358 424.2898 494.9728 449.693 495.2568 474.861 491.8022 475.742 491.6829 476.5337 491.0051 479.3471 489.5977 464.8691 488.8089 452.5087 488.1314 440.1431 487.461 430.2697 486.9272 420.4548 485.9748 410.6299 484.8701 404.0666 484.1286 396.8711 485.5357 390.3985 483.8409 376.329 480.1615 361.3439 479.6597 347.5653 479.4987 331.2941 479.3148 315.8776 473.4439 299.4049 475.5555 292.97 476.3798 285.5268 472.9561 278.6709 471.202 272.5019 469.6166 266.3685 467.9368 260.1034 466.6615 249.6237 464.523 241.5892 453.3976 243.0295 443.2377 241.4404 440.6992 237.335 442.3898 235.8802 438.7527 235.9477 437.5902 238.0368 439.3466 238.9277 437.8294 232.5353 435.6057 235.5766 427.3121 229.2636 424.6359 228.744 424.4131 228.7471 422.8824 228.6916 421.9495 228.2913 414.489 240.7564 399.1388 248.47 397.7348 255.4132 396.4728 262.1132 393.7377 269.4679 394.7247 270.4853 394.8562 272.5673 393.9231 272.6663 393.2881 273.9611 384.7337 281.7071 386.0663 286.9401 386.123 308.4415 386.3523 330.0154 386.1283 351.2789 383.999 361.0508 383.0204 370.9247 386.5558 381.2185 382.3319 377.7548 381.2179 375.8681 379.3051 376.1816 376.0404 367.8537 379.9585 360.4776 379.2855 351.8447 377.9155 346.9935 377.1448 298.154 360.1528 287.8169 353.8057 288.487 341.0359 279.2917 340.7788 278.6698 329.4952 280.1424 326.3774 294.6824 324.1236 293.9017 317.4551 300.0957 324.2653 312.4616 321.6651 308.4545 320.1392 306.8736 319.538 310.7421 315.6304 309.9203 313.0387 314.2726 313.7766 316.1631 314.9532 317.9169 314.5173 327.0436 304.8517 332.9252 316.7294 340.2556 317.9645 362.8684 321.7643 349.9174 323.0677 372.3137 327.4614 391.0507 331.1444 409.913 330.5489 428.648 332.566 437.7379 333.542 445.9496 337.5737 444.0118 347.4108 446.7628 348.1628 448.8712 347.8397 448.1158 344.5248 447.6991 342.7106 447.2629 341.0266 449.4169 340.3349 453.2939 339.0917 458.4852 341.0997 460.8354 336.136 469.4681 339.1231 478.2314 335.7799 486.9649 336.6896 512.5663 339.3493 538.3168 339.9494 564.0197 341.0872 593.4849 342.3915 622.961 342.9241 652.4646 343.2807 678.723 343.603 772.4928 342.4221 798.7241 342.5443 804.0713 342.5743 809.4484 342.6934 814.7458 343.2849 820.9678 343.9814 828.2976 343.1018 830.0812 351.572 830.6073 354.0756 833.4893 354.9353 836.0473 355.6973 834.2101 359.6783 829.0083 358.0665 826.1906 361.2934 831.0328 365.898 837.83 363.2332 843.1226 365.3566 843.6362 368.9915 839.3936 368.3716 838.2801 371.2226 845.8551 375.1532 832.1216 382.0881 839.7471 386.3163 834.2504 399.1929 818.2505 401.8416 810.8572 413.5107 811.616 415.3555 813.2148 415.7603 815.9111 415.7935 836.0989 416.0288 856.19 414.1488 876.3347 413.699 896.142 413.2585 848.3046 411.4414 867.9969 409.9774 882.5822 408.8942 897.2563 407.0268 911.8621 405.3254 930.5101 403.1572 949.17 400.6777 968.0091 400.6477 972.8997 400.6403 978.2768 400.9167 979.3766 407.4857 979.9965 411.2033 984.3523 411.033 987.4871 412.2624 986.3974 417.1277 981.0147 416.6572 978.5923 419.3855 984.2219 423.2687 991.0511 420.6529 997.2298 421.105 997.1943 421.7975 997.1578 422.4886 997.1223 423.1811 995.4397 424.5939 993.7604 426.003 991.7076 427.7228 993.09 429.1169 994.4521 430.4837 995.6809 431.7239 993.7996 434.5169 991.7527 429.2039 990.2871 433.0865 995.5715 434.5055 987.0948 443.2686 997.041 443.291 993.0611 442.9698 989.8736 442.601 986.3331 444.1122 987.6742 446.6293 991.1256 445.1995 992.8823 447.5684 992.8593 456.3944 984.6768 459.6276 978.5718 464.3025 976.6653 465.7649 974.8131 465.9004 974.6283 469.7008 974.3862 474.6883 967.0782 479.6175 963.1786 478.9797 953.3466 477.366 952.8514 486.1159 947.6399 489.2403 944.2219 491.2906 941.2852 494.5286 937.135 494.4917 931.1091 494.4353 926.1609 498.532 920.0871 497.7763 919.7172 497.7323 919.2039 498.7111 917.9118 500.1625 928.9939 499.8268 939.0186 499.3764 949.0496 499.2554 965.6022 499.0615 982.1832 497.4602 998.7029 499.7985 1003.2571 500.4445 1008.1318 500.4723 1007.439 507.2301 1007.2071 509.4833 1009.7756 511.6221 1012.9235 512.4203 1015.1487 512.9881 1018.2736 512.5652 1019.5478 516.2049 1016.8702 518.2809 1014.0032 520.5005 1010.7317 523.0369 1015.4769 525.2601 1023.7876 520.9648 1024.5285 529.5739 1027.4105 529.467 1027.9573 523.889 1030.5485 526.9788 1034.127 531.2455 1026.3583 531.4748 1026.2826 534.8676 1026.3742 537.1526 1028.8536 537.5188 1030.1176 538.9106 1032.4202 541.4372 1032.8516 543.5816 1029.7619 546.2853 1023.1407 552.0864 1023.3221 552.2454 1032.1118 556.3077 1032.7315 556.5917 1033.1444 557.2763 1034.4314 558.5437 1026.4989 561.5844 1027.2858 570.1303 1020.7998 574.9775 1014.6796 579.5453 919.986 573.0046 909.2217 575.6151" fill="#c9141d"/>
<path transform="matrix(1,0,0,-1,1,746.45)" d="M563.7436 543.8421 563.6645 505.0811 577.6115 504.906 577.626 547.8619ZM570.6108 516.138C573.088 516.138 575.0963 514.1296 575.0963 511.6524 575.0963 509.1752 573.088 507.1669 570.6108 507.1669 568.1336 507.1669 566.1252 509.1752 566.1252 511.6524 566.1252 514.1296 568.1336 516.138 570.6108 516.138ZM647.6542 516.138C650.1314 516.138 652.1397 514.1296 652.1397 511.6524 652.1397 509.1752 650.1314 507.1669 647.6542 507.1669 645.177 507.1669 643.1686 509.1752 643.1686 511.6524 643.1686 514.1296 645.177 516.138 647.6542 516.138ZM592.2136 547.3185 588.3925 545.9961C590.3416 539.7029 607.6063 535.0207 620.6896 539.5365 623.3443 540.453 628.3057 543.1459 629.2845 545.2693 628.0971 546.3096 627.0647 546.1577 626.0794 547.181 625.3265 549.1315 625.8606 552.7843 625.7446 555.2425 622.6084 554.4984 613.8173 546.827 599.6234 552.2363 597.1221 553.1893 593.7676 555.5611 592.3329 555.9593ZM571.2574 598.4952 580.7293 598.4025C582.8414 592.7769 586.7354 594.3124 593.0481 594.3124L634.161 594.3348C636.8397 594.5956 637.3706 596.3409 638.5408 598.2976L647.8889 598.4529C647.9002 600.3524 647.0957 605.0815 646.7304 606.9555 645.7569 611.9447 643.7109 610.5648 642.5294 613.0976 638.9456 620.78 637.323 624.9478 629.6105 630.5511 628.8523 631.1018 626.9108 632.2901 626.6645 632.6957 625.9003 633.9538 626.4819 635.1718 625.0949 636.4006 623.1779 638.0991 613.1081 641.6175 609.823 641.6943 605.8953 641.7865 596.4695 638.1746 594.288 636.5996 592.6643 635.4275 593.1598 635.1032 592.6635 633.4591 592.2116 631.9621 593.5805 633.3423 589.9893 630.9068 583.446 626.4686 579.782 621.0354 576.7078 613.4193 575.5192 610.475 573.5143 611.8211 572.434 607.3591 571.964 605.4188 571.1647 600.6297 571.2574 598.4952ZM573.9123 593.1564C573.906 582.8641 578.4568 581.4445 579.7114 579.4234 580.8835 577.5355 581.0077 573.6328 585.591 566.5374 598.3515 546.783 625.2381 547.2791 636.8009 572.5392 637.5129 574.0951 638.8631 578.7094 639.4005 579.534 640.0344 580.506 645.2169 582.8247 645.1651 592.7573 645.1041 597.1558 644.4692 596.6799 639.8215 596.215 637.1464 591.9007 635.9519 592.2632 629.7613 592.2598L586.264 592.2573C581.2512 592.2573 581.4714 593.5306 579.081 596.2439 574.9058 596.5024 573.9148 597.2746 573.9123 593.1564ZM579.7168 502.8761 561.3874 502.8514 561.3868 486.4983 656.6224 486.4482 656.5725 502.8392 638.8296 502.8117 638.7508 518.0037 579.82 518.2172ZM640.8349 504.9272 654.7779 504.8708 654.7861 543.8639 640.8187 547.8758Z" fill="#fdde5a" fill-rule="evenodd"/>
<path transform="matrix(1,0,0,-1,1,746.45)" d="M477.002 431.0929 476.9459 454.6346 465.3992 435.2409H461.3074L449.8169 454.1304V431.0929H441.2968V470.3292H448.8077L463.4935 445.9467 477.955 470.3292H485.4098L485.5218 431.0929Z" fill="#ffffff"/>
<path transform="matrix(1,0,0,-1,1,746.45)" d="M520.6666 439.5008H502.4497L498.9745 431.0929H489.6697L507.1581 470.3292H516.1263L533.6705 431.0929H524.1419ZM517.8078 446.3952 511.5861 461.4171 505.3643 446.3952Z" fill="#ffffff"/>
<path transform="matrix(1,0,0,-1,1,746.45)" d="M550.6543 430.4203C547.5529 430.4203 544.5541 430.8406 541.658 431.6814 538.7621 432.5221 536.436 433.6152 534.6797 434.9605L537.7623 441.7988C539.4441 440.5657 541.4431 439.5756 543.7599 438.8281 546.0769 438.0806 548.3937 437.707 550.7104 437.707 553.2888 437.707 555.1946 438.09 556.4276 438.8562 557.661 439.6221 558.2775 440.6406 558.2775 441.9111 558.2775 442.8451 557.9133 443.6206 557.1845 444.2372 556.4557 444.8537 555.5217 445.3489 554.3819 445.7225 553.242 446.0961 551.7006 446.5071 549.7574 446.9556 546.768 447.6657 544.3206 448.3757 542.4148 449.0855 540.5091 449.7956 538.8741 450.9354 537.5103 452.5047 536.1463 454.0742 535.4643 456.1668 535.4643 458.7826 535.4643 461.0619 536.0808 463.1267 537.3139 464.9763 538.5472 466.8262 540.4062 468.2928 542.8911 469.3765 545.3762 470.4602 548.4124 471.0019 551.9996 471.0019 554.5032 471.0019 556.9509 470.7031 559.3425 470.105 561.7341 469.5072 563.8266 468.6477 565.6204 467.5266L562.8178 460.6322C559.1931 462.6876 555.5682 463.7151 551.9435 463.7151 549.4025 463.7151 547.5249 463.3041 546.3105 462.4821 545.0958 461.66 544.4887 460.5763 544.4887 459.231 544.4887 457.8857 545.1894 456.8862 546.5906 456.2323 547.992 455.5783 550.1313 454.9337 553.0085 454.2985 555.9979 453.5884 558.4456 452.8786 560.3513 452.1685 562.2571 451.4584 563.8921 450.3373 565.2558 448.8055 566.6199 447.2734 567.3019 445.1992 567.3019 442.5834 567.3019 440.3415 566.676 438.2955 565.4242 436.4459 564.1722 434.5963 562.2945 433.1296 559.7909 432.0459 557.2871 430.9622 554.2418 430.4203 550.6543 430.4203" fill="#ffffff"/>
<path transform="matrix(1,0,0,-1,1,746.45)" d="M581.0905 462.9305H568.535V470.3292H602.7267V462.9305H590.171V431.0929H581.0905Z" fill="#ffffff"/>
<path transform="matrix(1,0,0,-1,1,746.45)" d="M637.9835 438.3797V431.0929H607.6032V470.3292H637.2547V463.0425H616.6276V454.5227H634.8444V447.4602H616.6276V438.3797Z" fill="#ffffff"/>
<path transform="matrix(1,0,0,-1,1,746.45)" d="M670.2134 431.0929 662.6463 442.023H662.1979 654.2946V431.0929H645.2141V470.3292H662.1979C665.6732 470.3292 668.6906 469.7501 671.2503 468.5916 673.81 467.4334 675.7812 465.789 677.164 463.659 678.5464 461.5291 679.2378 459.0068 679.2378 456.0922 679.2378 453.1774 678.5371 450.6644 677.1359 448.5532 675.7345 446.442 673.7445 444.8256 671.1661 443.7045L679.9666 431.0929ZM670.0453 456.0922C670.0453 458.2967 669.3352 459.9876 667.9154 461.1648 666.4952 462.3418 664.4214 462.9305 661.6936 462.9305H654.2946V449.2536H661.6936C664.4214 449.2536 666.4952 449.8517 667.9154 451.0474 669.3352 452.2433 670.0453 453.9249 670.0453 456.0922" fill="#ffffff"/>
<path transform="matrix(1,0,0,-1,1,746.45)" d="M689.1029 430.6445C687.5708 430.6445 686.2816 431.1677 685.2353 432.214 684.1891 433.2603 683.6658 434.5682 683.6658 436.1377 683.6658 437.7444 684.1891 439.043 685.2353 440.0331 686.2816 441.0235 687.5708 441.5185 689.1029 441.5185 690.6351 441.5185 691.9243 441.0235 692.9705 440.0331 694.0168 439.043 694.5398 437.7444 694.5398 436.1377 694.5398 434.5682 694.0168 433.2603 692.9705 432.214 691.9243 431.1677 690.6351 430.6445 689.1029 430.6445" fill="#ffffff"/>
<path transform="matrix(1,0,0,-1,1,746.45)" d="M715.3914 446.5071 710.1224 441.0142V431.0929H701.098V470.3292H710.1224V452.0004L727.4985 470.3292H737.5878L721.3329 452.8412 738.5409 431.0929H727.9469Z" fill="#ffffff"/>
<path transform="matrix(1,0,0,-1,1,746.45)" d="M767.6878 451.3277H775.9834V435.4089C773.8534 433.802 771.3873 432.5689 768.5847 431.7094 765.7821 430.85 762.9608 430.4203 760.1207 430.4203 756.0476 430.4203 752.3855 431.2891 749.1345 433.0267 745.8834 434.7643 743.3331 437.1746 741.4835 440.2573 739.6339 443.3403 738.7089 446.8249 738.7089 450.7112 738.7089 454.5975 739.6339 458.0819 741.4835 461.1648 743.3331 464.2478 745.9021 466.6578 749.1906 468.3954 752.4791 470.1331 756.1783 471.0019 760.2888 471.0019 763.7267 471.0019 766.8471 470.4228 769.6497 469.2643 772.4523 468.106 774.8065 466.4242 776.7122 464.2197L770.8827 458.8387C768.0801 461.7907 764.6984 463.2667 760.7373 463.2667 758.2337 463.2667 756.0102 462.7437 754.0671 461.6972 752.1239 460.6509 750.6105 459.1749 749.5268 457.2692 748.4431 455.3634 747.9014 453.1774 747.9014 450.7112 747.9014 448.2822 748.4431 446.1148 749.5268 444.2091 750.6105 442.3034 752.1146 440.818 754.039 439.753 755.9634 438.6881 758.1589 438.1554 760.6253 438.1554 763.2411 438.1554 765.5953 438.7161 767.6878 439.8369Z" fill="#ffffff"/>
<path transform="matrix(1,0,0,-1,1,746.45)" d="M437.2223 396.8991H440.951V395.1099C440.951 393.421 440.1485 392.4179 438.6937 392.4179 437.5233 392.4179 436.6704 393.0701 436.2693 394.3242L435.1156 393.8893C435.6672 392.0499 437.0717 391.1638 438.861 391.1638 441.0848 391.1638 442.5729 392.7523 442.5729 395.1768V399.5745C442.5729 402.0659 441.1684 403.6207 438.8275 403.6207 437.0049 403.6207 435.7174 402.5339 435.1654 400.9955L436.286 400.5609C436.6704 401.631 437.5066 402.3332 438.677 402.3332 440.2655 402.3332 440.951 401.3802 440.951 399.5912V398.2201H437.2223Z" fill="#fdde5a"/>
<path transform="matrix(1,0,0,-1,1,746.45)" d="M448.2618 403.4537V391.3311H449.8671V396.8155H454.4651V391.3311H456.0704V403.4537H454.4651V398.2201H449.8671V403.4537Z" fill="#fdde5a"/>
<path transform="matrix(1,0,0,-1,1,746.45)" d="M462.1606 403.4537V391.3311H469.1667V392.7022H463.7659V396.9493H467.8625V398.2034H463.7659V402.0659H468.9326V403.4537Z" fill="#fdde5a"/>
<path transform="matrix(1,0,0,-1,1,746.45)" d="M478.5341 403.4537H474.5211V391.3311H476.1264V396.0797H478.6177C480.7913 396.0797 481.9952 397.4675 481.9952 399.7582 481.9952 402.0993 480.7579 403.4537 478.5341 403.4537ZM476.1264 402.116H478.4839C479.8216 402.116 480.39 401.3802 480.39 399.7414 480.39 398.1197 479.8216 397.3504 478.4839 397.3504H476.1264Z" fill="#fdde5a"/>
<path transform="matrix(1,0,0,-1,1,746.45)" d="M487.3164 403.4537V391.3311H488.8882V402.0659H493.1853V403.4537Z" fill="#fdde5a"/>
<path transform="matrix(1,0,0,-1,1,746.45)" d="M504.6262 403.4537 499.7438 394.0398H499.7103V403.4537H498.1887V391.3311H499.7103L504.5927 400.7449H504.6262V391.3311H506.1645V403.4537Z" fill="#fdde5a"/>
<path transform="matrix(1,0,0,-1,1,746.45)" d="M515.95 403.4537C513.2747 403.4537 512.1879 402.1662 512.1879 400.0759 512.1879 398.3037 512.9402 397.2668 514.5789 396.966V396.9326C514.1775 396.7319 513.8768 396.3974 513.7095 395.9626L512.606 393.2374C512.3551 392.6018 511.9872 392.3844 511.4356 392.3844H511.1178V391.3478C511.3018 391.2809 511.6192 391.2474 511.9036 391.2474 512.89 391.2474 513.6426 391.7157 514.0607 392.7189L515.3315 395.7622C515.5654 396.3305 515.8831 396.5647 516.4852 396.5981H517.7225V391.3311H519.3275V403.4537ZM517.7225 397.7685H516.0336C514.3949 397.7685 513.8266 398.4874 513.8266 399.9756 513.8266 401.4972 514.4953 402.116 515.9835 402.116H517.7225Z" fill="#fdde5a"/>
<path transform="matrix(1,0,0,-1,1,746.45)" d="M543.543 403.4537 538.6606 394.0398H538.6272V403.4537H537.1055V391.3311H538.6272L543.5096 400.7449H543.543V391.3311H545.0814V403.4537Z" fill="#fdde5a"/>
<path transform="matrix(1,0,0,-1,1,746.45)" d="M557.8767 403.4537V402.0491H560.903V391.3311H562.5082V402.0491H565.5348V403.4537Z" fill="#fdde5a"/>
<path transform="matrix(1,0,0,-1,1,746.45)" d="M570.5382 403.4537V391.3311H577.5443V392.7022H572.1435V396.9493H576.2401V398.2034H572.1435V402.0659H577.3102V403.4537Z" fill="#fdde5a"/>
<path transform="matrix(1,0,0,-1,1,746.45)" d="M582.8987 403.4537V391.3311H584.5039V402.0993H588.9348V391.3311H590.54V403.4537Z" fill="#fdde5a"/>
<path transform="matrix(1,0,0,-1,1,746.45)" d="M602.6998 402.0993V391.3311H604.3051V403.4537H597.901L597.6167 397.7351C597.3826 393.1705 596.8979 392.4011 595.7274 392.4011H595.4264V391.3478C595.6271 391.2809 595.9114 391.2474 596.1954 391.2474 597.9178 391.2474 598.8875 392.3008 599.1551 397.6515L599.3725 402.0993Z" fill="#fdde5a"/>
<path transform="matrix(1,0,0,-1,1,746.45)" d="M614.0906 403.6207C611.4319 403.6207 609.9939 402.0491 609.9939 399.5076V395.2772C609.9939 392.7356 611.4319 391.1638 614.0906 391.1638 616.7324 391.1638 618.1705 392.7356 618.1705 395.2939V399.5243C618.1705 402.0491 616.7324 403.6207 614.0906 403.6207ZM616.5652 395.2939C616.5652 393.4043 615.746 392.4848 614.0906 392.4848 612.4184 392.4848 611.5992 393.4043 611.5992 395.2772V399.5076C611.5992 401.3634 612.4351 402.2663 614.0906 402.2663 615.746 402.2663 616.5652 401.3634 616.5652 399.5076Z" fill="#fdde5a"/>
<path transform="matrix(1,0,0,-1,1,746.45)" d="M642.5864 400.4104C642.5864 402.2498 641.4829 403.4537 639.1086 403.4537H635.5471V391.3311H639.5434C642.1351 391.3311 643.1717 392.5517 643.1717 394.7922 643.1717 396.3305 642.4529 397.3671 640.9145 397.7016V397.7351C642.1017 398.1197 642.5864 398.9557 642.5864 400.4104ZM637.1189 396.9828H639.4765C640.9145 396.9828 641.5665 396.364 641.5665 394.8925 641.5665 393.2206 640.8811 392.652 639.4598 392.652H637.1189ZM637.1189 402.0993H639.142C640.5466 402.0993 641.0985 401.514 641.0985 400.2432 641.0985 398.9222 640.5633 398.2368 639.1587 398.2368H637.1189Z" fill="#fdde5a"/>
<path transform="matrix(1,0,0,-1,1,746.45)" d="M650.0645 394.4078H654.6458L655.5991 391.3311H657.2543L653.258 403.4537H651.5025L647.4895 391.3311H649.1449ZM652.3384 401.9488H652.3719L654.2782 395.6451H650.4491Z" fill="#fdde5a"/>
<path transform="matrix(1,0,0,-1,1,746.45)" d="M673.8953 391.3311V403.4537H672.2901V392.7022H668.8457V403.4537H667.2404V392.7022H663.7961V403.4537H662.1908V391.3311Z" fill="#fdde5a"/>
<path transform="matrix(1,0,0,-1,1,746.45)" d="M679.9856 403.4537V391.3311H686.9917V392.7022H681.5908V396.9493H685.6875V398.2034H681.5908V402.0659H686.7575V403.4537Z" fill="#fdde5a"/>
<path transform="matrix(1,0,0,-1,1,746.45)" d="M692.346 403.4537V391.3311H693.9179V402.0659H698.2149V403.4537Z" fill="#fdde5a"/>
<path transform="matrix(1,0,0,-1,1,746.45)" d="M706.5125 403.6207C703.8539 403.6207 702.4158 402.0491 702.4158 399.5076V395.2772C702.4158 392.7356 703.8539 391.1638 706.5125 391.1638 709.1544 391.1638 710.5924 392.7356 710.5924 395.2939V399.5243C710.5924 402.0491 709.1544 403.6207 706.5125 403.6207ZM708.9871 395.2939C708.9871 393.4043 708.1679 392.4848 706.5125 392.4848 704.8403 392.4848 704.0211 393.4043 704.0211 395.2772V399.5076C704.0211 401.3634 704.857 402.2663 706.5125 402.2663 708.1679 402.2663 708.9871 401.3634 708.9871 399.5076Z" fill="#fdde5a"/>
<path transform="matrix(1,0,0,-1,1,746.45)" d="M725.4275 403.4537 725.1766 398.7383C725.0428 396.1466 724.5748 394.1904 723.956 392.5851H722.7689V388.6892H724.3407V391.3311H731.4134V388.6892H733.002V392.5851H731.6141V403.4537ZM730.0089 402.0993V392.5851H725.5111C726.0962 394.09 726.5143 396.2469 726.6481 398.6546L726.8321 402.0993Z" fill="#fdde5a"/>
<path transform="matrix(1,0,0,-1,1,746.45)" d="M741.5334 403.6207C738.8748 403.6207 737.4368 402.0491 737.4368 399.5076V395.2772C737.4368 392.7356 738.8748 391.1638 741.5334 391.1638 744.1753 391.1638 745.6133 392.7356 745.6133 395.2939V399.5243C745.6133 402.0491 744.1753 403.6207 741.5334 403.6207ZM744.008 395.2939C744.008 393.4043 743.1888 392.4848 741.5334 392.4848 739.8612 392.4848 739.042 393.4043 739.042 395.2772V399.5076C739.042 401.3634 739.878 402.2663 741.5334 402.2663 743.1888 402.2663 744.008 401.3634 744.008 399.5076Z" fill="#fdde5a"/>
<path transform="matrix(1,0,0,-1,1,746.45)" d="M760.3146 403.4537 756.5525 395.7454H756.519L752.7736 403.4537H751.3021V391.3311H752.7569V400.2432H752.7903L756.1845 393.5883H756.9037L760.2812 400.2097H760.3146V391.3311H761.7861V403.4537Z" fill="#fdde5a"/>
<path transform="matrix(1,0,0,-1,1,746.45)" d="M769.2976 394.4078H773.879L774.8323 391.3311H776.4874L772.4911 403.4537H770.7356L766.7226 391.3311H768.378ZM771.5716 401.9488H771.605L773.5113 395.6451H769.6823Z" fill="#fdde5a"/>
<path transform="matrix(1,0,0,-1,1,746.45)" d="M781.3069 403.4537V398.454L781.4574 394.8423H782.6111L782.7616 398.5041V403.4537ZM781.1898 391.3311H782.8954V393.1537H781.1898Z" fill="#fdde5a"/>
<path transform="matrix(1,0,0,-1,1,746.45)" d="M268.9577 265.9184C260.3906 269.6831 251.2536 270.3883 242.7661 268.5155 238.4875 277.0387 231.3275 284.1786 221.9148 288.3152 221.0046 288.7155 220.0881 289.0797 219.1666 289.4102L221.8893 295.1297C223.5971 294.6464 225.2925 294.0426 226.9636 293.3087 235.546 289.5369 242.0745 283.0272 245.975 275.256 253.7138 276.9636 262.0446 276.3207 269.8557 272.8877 272.266 271.8289 274.5139 270.5522 276.5874 269.0938L273.8633 263.3717C272.3046 264.3129 270.6693 265.1664 268.9577 265.9184ZM280.6135 303.5047C281.4877 306.0128 287.7979 313.9495 289.6396 316.3649 285.2524 318.9798 276.33 320.6384 269.4317 327.9858 267.9599 329.5536 274.7112 331.0041 273.6933 333.3135 272.5421 335.9251 276.7689 345.1555 283.1275 350.6213 270.4779 350.6213 239.8893 325.9196 234.5613 317.5092 229.7231 309.8741 228.4152 308.8372 224.5402 300.6981 234.9771 297.743 243.7665 290.5047 248.6259 280.8238 259.2595 283.1706 270.358 280.9077 279.2387 274.6616 284.2775 284.3592 298.4391 306.3084 305.8234 312.4352 298.2895 318.1119 294.175 314.2885 287.1244 309.1465 286.073 308.38 280.944 304.2802 280.6135 303.5047ZM219.4563 283.1519C228.8693 279.0156 236.0293 271.876 240.3079 263.3528 248.7954 265.2259 257.9329 264.5201 266.4995 260.7554 268.2113 260.0031 269.8466 259.1501 271.4054 258.2084L271.2988 257.9854 267.0593 249.08C265.593 250.6927 263.7981 252.0547 261.7089 253.0491 257.8844 254.8698 253.7277 255.1578 249.9273 254.1648 245.1674 252.9218 240.9678 249.6674 238.6877 244.878 236.9271 241.1796 236.5997 237.1703 237.4787 233.4736 237.7378 232.3823 238.1009 231.3179 238.5646 230.2974 236.2717 228.0387 233.7202 226.0956 230.9828 224.4915 227.4775 222.4383 223.6671 220.9453 219.7003 220.0706 217.8819 223.6941 216.6352 227.592 216.0173 231.6146 215.5368 234.7449 215.4387 237.9504 215.7486 241.1612 216.8328 241.4443 217.8873 241.833 218.8973 242.3197 222.3215 243.9677 225.2271 246.75 226.9879 250.4486 229.2681 255.238 229.1462 260.5504 227.1104 265.0286 225.4847 268.6042 222.6407 271.6492 218.8171 273.4699 216.7277 274.4643 214.5387 274.9989 212.3631 275.1205L216.6026 284.0258 216.7084 284.2472C217.6296 283.9161 218.5464 283.5522 219.4563 283.1519" fill="#c9141d"/>
<path transform="matrix(1,0,0,-1,1,746.45)" d="M333.3229 265.4294V258.6779H328.9127V265.4841L321.5347 277.7349H326.2173L331.3083 269.2681 336.3993 277.7349H340.7281Z" fill="#1a1a18"/>
<path transform="matrix(1,0,0,-1,1,746.45)" d="M342.9879 277.7349H347.3708V265.3206L356.4638 277.7349H360.6021V258.6779H356.2461V271.065L347.1531 258.6779H342.9879ZM351.7812 278.96C348.2966 278.96 346.536 280.3484 346.4997 283.1255H349.5217C349.558 281.8006 350.3112 281.1382 351.7812 281.1382 352.5072 281.1382 353.0608 281.306 353.442 281.6416 353.823 281.9775 354.0229 282.4722 354.041 283.1255H357.0627C357.0446 281.7643 356.6001 280.7297 355.7288 280.0219 354.8577 279.3141 353.5418 278.96 351.7812 278.96" fill="#1a1a18"/>
<path transform="matrix(1,0,0,-1,1,746.45)" d="M382.191 277.7349V258.6779H377.835V274.1414H371.3012L371.1651 270.1667C371.0744 267.4624 370.8564 265.2707 370.5117 263.592 370.1667 261.913 369.5905 260.6244 368.7829 259.7261 367.9753 258.8275 366.8454 258.3785 365.3935 258.3785 364.7945 258.3785 364.0686 258.4783 363.2156 258.6779L363.4877 262.4077C363.7236 262.3351 363.9869 262.2988 364.2772 262.2988 365.33 262.2988 366.065 262.9205 366.4826 264.1635 366.8998 265.4067 367.1631 267.3533 367.272 270.0031L367.5441 277.7349Z" fill="#1a1a18"/>
<path transform="matrix(1,0,0,-1,1,746.45)" d="M396.0485 258.351C394.0702 258.351 392.2869 258.7776 390.6986 259.6306 389.1107 260.4838 387.8674 261.6591 386.9691 263.1563 386.0705 264.6536 385.6215 266.3371 385.6215 268.2065 385.6215 270.076 386.0705 271.7592 386.9691 273.2564 387.8674 274.754 389.1107 275.9292 390.6986 276.7822 392.2869 277.6351 394.0702 278.0617 396.0485 278.0617 398.0268 278.0617 399.8052 277.6351 401.3844 276.7822 402.9633 275.9292 404.2066 274.754 405.1142 273.2564 406.0216 271.7592 406.4754 270.076 406.4754 268.2065 406.4754 266.3371 406.0216 264.6536 405.1142 263.1563 404.2066 261.6591 402.9633 260.4838 401.3844 259.6306 399.8052 258.7776 398.0268 258.351 396.0485 258.351ZM396.0485 262.1081C397.1735 262.1081 398.19 262.3669 399.0974 262.8839 400.0051 263.4012 400.7174 264.1226 401.2347 265.0484 401.7518 265.974 402.0106 267.0267 402.0106 268.2065 402.0106 269.3863 401.7518 270.4388 401.2347 271.3646 400.7174 272.2901 400.0051 273.0115 399.0974 273.5289 398.19 274.0462 397.1735 274.3047 396.0485 274.3047 394.9231 274.3047 393.9066 274.0462 392.9992 273.5289 392.0919 273.0115 391.3792 272.2901 390.8622 271.3646 390.3449 270.4388 390.0861 269.3863 390.0861 268.2065 390.0861 267.0267 390.3449 265.974 390.8622 265.0484 391.3792 264.1226 392.0919 263.4012 392.9992 262.8839 393.9066 262.3669 394.9231 262.1081 396.0485 262.1081ZM387.0598 269.6766H405.1959V266.7362H387.0598Z" fill="#1a1a18"/>
<path transform="matrix(1,0,0,-1,1,746.45)" d="M418.1272 277.7349C419.8153 277.7349 421.2808 277.4537 422.5241 276.891 423.7673 276.3283 424.7249 275.5298 425.3964 274.4952 426.0679 273.4608 426.4036 272.2357 426.4036 270.8201 426.4036 269.4226 426.0679 268.202 425.3964 267.1583 424.7249 266.1146 423.7673 265.316 422.5241 264.7624 421.2808 264.2091 419.8153 263.9322 418.1272 263.9322H414.2886V258.6779H409.8784V277.7349ZM417.8823 267.5259C419.2072 267.5259 420.2147 267.8117 420.9043 268.3834 421.594 268.9551 421.9387 269.7673 421.9387 270.8201 421.9387 271.8907 421.594 272.7122 420.9043 273.2839 420.2147 273.8554 419.2072 274.1414 417.8823 274.1414H414.2886V267.5259Z" fill="#1a1a18"/>
<path transform="matrix(1,0,0,-1,1,746.45)" d="M448.0744 262.2716V254.7303H443.9908V258.6779H430.5419V254.7303H426.4583L426.4855 262.2716H427.2477C428.3912 262.3079 429.1988 263.1427 429.6708 264.776 430.1425 266.4096 430.433 268.742 430.5419 271.7728L430.7596 277.7349H445.4065V262.2716ZM434.435 271.3646C434.3443 269.0957 434.1538 267.1946 433.8632 265.661 433.5729 264.1272 433.1282 262.9976 432.5292 262.2716H441.0505V274.1414H434.5166Z" fill="#1a1a18"/>
<path transform="matrix(1,0,0,-1,1,746.45)" d="M459.6174 265.4294V258.6779H455.2072V265.4841L447.8292 277.7349H452.5118L457.6028 269.2681 462.6938 277.7349H467.0226Z" fill="#1a1a18"/>
<path transform="matrix(1,0,0,-1,1,746.45)" d="M494.4648 266.3552H491.688V258.6779H487.3592V266.3552H484.528L480.2536 258.6779H475.1629L480.8798 268.6419 475.5166 277.7349H480.172L484.4463 270.0306H487.3592V277.7349H491.688V270.0306H494.5192L498.8208 277.7349H503.4762L498.1402 268.6419 503.8302 258.6779H498.7392Z" fill="#1a1a18"/>
<path transform="matrix(1,0,0,-1,1,746.45)" d="M518.4771 262.7614H509.629L507.941 258.6779H503.4217L511.9157 277.7349H516.2717L524.793 258.6779H520.1649ZM517.0884 266.11 514.0667 273.4064 511.0447 266.11Z" fill="#1a1a18"/>
<path transform="matrix(1,0,0,-1,1,746.45)" d="M544.8033 277.7349V258.6779H540.3929V266.4913H531.7353V258.6779H527.3252V277.7349H531.7353V270.2211H540.3929V277.7349Z" fill="#1a1a18"/>
<path transform="matrix(1,0,0,-1,1,746.45)" d="M562.4719 262.7614H553.6239L551.9358 258.6779H547.4166L555.9106 277.7349H560.2666L568.7878 258.6779H564.1597ZM561.0832 266.11 558.0615 273.4064 555.0395 266.11Z" fill="#1a1a18"/>
<path transform="matrix(1,0,0,-1,1,746.45)" d="M586.4023 266.3552H583.3531V258.6779H578.9701V277.7349H583.3531V270.0306H586.5111L591.5205 277.7349H596.1759L589.9414 268.5331 596.3664 258.6779H591.3573Z" fill="#1a1a18"/>
<path transform="matrix(1,0,0,-1,1,746.45)" d="M611.6394 268.6147C612.8011 268.27 613.6903 267.7073 614.3074 266.927 614.9245 266.1466 615.2332 265.1845 615.2332 264.041 615.2332 262.3533 614.5934 261.0374 613.3139 260.0935 612.0343 259.1498 610.2057 258.6779 607.828 258.6779H598.4357V277.7349H607.3106C609.5251 277.7349 611.2491 277.3086 612.4833 276.4553 613.7175 275.6024 614.3346 274.3863 614.3346 272.8074 614.3346 271.8635 614.0988 271.0332 613.6268 270.3163 613.1548 269.5995 612.4924 269.0323 611.6394 268.6147ZM602.8186 269.8398H606.9297C607.8915 269.8398 608.6174 270.0351 609.1075 270.4252 609.5976 270.8155 609.8426 271.3918 609.8426 272.154 609.8426 272.8981 609.5931 273.4699 609.0939 273.869 608.5947 274.2684 607.8733 274.468 606.9297 274.468H602.8186ZM607.6647 261.9448C609.7337 261.9448 610.7683 262.7614 610.7683 264.3951 610.7683 265.974 609.7337 266.7634 607.6647 266.7634H602.8186V261.9448Z" fill="#1a1a18"/>
<path transform="matrix(1,0,0,-1,1,746.45)" d="M631.6223 262.7614H622.7742L621.0862 258.6779H616.5669L625.0609 277.7349H629.4169L637.9381 258.6779H633.31ZM630.2336 266.11 627.2118 273.4064 624.1898 266.11Z" fill="#1a1a18"/>
<path transform="matrix(1,0,0,-1,1,746.45)" d="M648.7191 277.7349C650.4072 277.7349 651.8727 277.4537 653.116 276.891 654.3592 276.3283 655.3168 275.5298 655.9883 274.4952 656.6598 273.4608 656.9955 272.2357 656.9955 270.8201 656.9955 269.4226 656.6598 268.202 655.9883 267.1583 655.3168 266.1146 654.3592 265.316 653.116 264.7624 651.8727 264.2091 650.4072 263.9322 648.7191 263.9322H644.8805V258.6779H640.4703V277.7349ZM648.4742 267.5259C649.7991 267.5259 650.8066 267.8117 651.4963 268.3834 652.1859 268.9551 652.5306 269.7673 652.5306 270.8201 652.5306 271.8907 652.1859 272.7122 651.4963 273.2839 650.8066 273.8554 649.7991 274.1414 648.4742 274.1414H644.8805V267.5259Z" fill="#1a1a18"/>
<path transform="matrix(1,0,0,-1,1,746.45)" d="M673.9563 274.1414H667.8581V258.6779H663.5021V274.1414H657.4311V277.7349H673.9563Z" fill="#1a1a18"/>
<path transform="matrix(1,0,0,-1,1,746.45)" d="M676.7334 277.7349H681.1163V265.3206L690.2093 277.7349H694.3476V258.6779H689.9916V271.065L680.8986 258.6779H676.7334Z" fill="#1a1a18"/>
<path transform="matrix(1,0,0,-1,1,746.45)" d="M707.3334 277.7349C709.0214 277.7349 710.4869 277.4537 711.7302 276.891 712.9735 276.3283 713.931 275.5298 714.6026 274.4952 715.2741 273.4608 715.6097 272.2357 715.6097 270.8201 715.6097 269.4226 715.2741 268.202 714.6026 267.1583 713.931 266.1146 712.9735 265.316 711.7302 264.7624 710.4869 264.2091 709.0214 263.9322 707.3334 263.9322H703.4947V258.6779H699.0846V277.7349ZM707.0885 267.5259C708.4134 267.5259 709.4208 267.8117 710.1105 268.3834 710.8002 268.9551 711.1449 269.7673 711.1449 270.8201 711.1449 271.8907 710.8002 272.7122 710.1105 273.2839 709.4208 273.8554 708.4134 274.1414 707.0885 274.1414H703.4947V267.5259Z" fill="#1a1a18"/>
<path transform="matrix(1,0,0,-1,1,746.45)" d="M730.4746 262.7614H721.6265L719.9385 258.6779H715.4192L723.9132 277.7349H728.2692L736.7905 258.6779H732.1623ZM729.0859 266.11 726.0642 273.4064 723.0421 266.11Z" fill="#1a1a18"/>
<path transform="matrix(1,0,0,-1,1,746.45)" d="M756.474 277.7349V258.6779H752.118V274.1414H745.5841L745.448 270.1667C745.3573 267.4624 745.1393 265.2707 744.7946 263.592 744.4497 261.913 743.8734 260.6244 743.0658 259.7261 742.2582 258.8275 741.1283 258.3785 739.6764 258.3785 739.0774 258.3785 738.3515 258.4783 737.4986 258.6779L737.7707 262.4077C738.0065 262.3351 738.2699 262.2988 738.5601 262.2988 739.6129 262.2988 740.3479 262.9205 740.7655 264.1635 741.1827 265.4067 741.4461 267.3533 741.5549 270.0031L741.8271 277.7349Z" fill="#1a1a18"/>
<path transform="matrix(1,0,0,-1,1,746.45)" d="M774.1429 262.7614H765.2948L763.6068 258.6779H759.0875L767.5815 277.7349H771.9375L780.4587 258.6779H775.8306ZM772.7542 266.11 769.7324 273.4064 766.7104 266.11Z" fill="#1a1a18"/>
<path transform="matrix(1,0,0,-1,1,746.45)" d="M791.2397 277.7349C792.9278 277.7349 794.3933 277.4537 795.6366 276.891 796.8798 276.3283 797.8374 275.5298 798.5089 274.4952 799.1804 273.4608 799.5161 272.2357 799.5161 270.8201 799.5161 269.4226 799.1804 268.202 798.5089 267.1583 797.8374 266.1146 796.8798 265.316 795.6366 264.7624 794.3933 264.2091 792.9278 263.9322 791.2397 263.9322H787.4011V258.6779H782.9909V277.7349ZM790.9948 267.5259C792.3197 267.5259 793.3272 267.8117 794.0169 268.3834 794.7065 268.9551 795.0512 269.7673 795.0512 270.8201 795.0512 271.8907 794.7065 272.7122 794.0169 273.2839 793.3272 273.8554 792.3197 274.1414 790.9948 274.1414H787.4011V267.5259Z" fill="#1a1a18"/>
<path transform="matrix(1,0,0,-1,1,746.45)" d="M821.1869 262.2716V254.7303H817.1033V258.6779H803.6544V254.7303H799.5708L799.598 262.2716H800.3602C801.5037 262.3079 802.3113 263.1427 802.7833 264.776 803.255 266.4096 803.5455 268.742 803.6544 271.7728L803.8721 277.7349H818.519V262.2716ZM807.5475 271.3646C807.4568 269.0957 807.2663 267.1946 806.9757 265.661 806.6854 264.1272 806.2407 262.9976 805.6417 262.2716H814.163V274.1414H807.6291Z" fill="#1a1a18"/>
<path transform="matrix(1,0,0,-1,1,746.45)" d="M833.3836 271.4734C835.7066 271.4734 837.4898 270.9561 838.7331 269.9215 839.9764 268.8871 840.598 267.3533 840.598 265.3206 840.598 263.1609 839.9129 261.5136 838.5426 260.3795 837.1723 259.2451 835.2439 258.6779 832.7574 258.6779H824.1545V277.7349H828.5374V271.4734ZM832.5125 261.9448C833.6557 261.9448 834.5497 262.226 835.194 262.7887 835.8384 263.3513 836.1604 264.168 836.1604 265.2389 836.1604 267.2172 834.9443 268.2065 832.5125 268.2065H828.5374V261.9448ZM843.0211 277.7349H847.4043V258.6779H843.0211Z" fill="#1a1a18"/>
<path transform="matrix(1,0,0,-1,1,746.45)" d="M430.9506 228.8126H427.9014V221.1352H423.5185V240.1923H427.9014V232.488H431.0595L436.0689 240.1923H440.7242L434.4897 230.9905 440.9147 221.1352H435.9056Z" fill="#1a1a18"/>
<path transform="matrix(1,0,0,-1,1,746.45)" d="M460.5163 240.1923 452.4035 225.11C451.6228 223.6581 450.6837 222.5599 449.5856 221.8158 448.4877 221.0717 447.2943 220.6996 446.0057 220.6996 445.0073 220.6996 443.973 220.9175 442.902 221.3529L443.9639 224.7018C444.7261 224.4657 445.3614 224.3477 445.8696 224.3477 446.4139 224.3477 446.904 224.4793 447.3397 224.7426 447.7754 225.0057 448.1745 225.4187 448.5376 225.9811L448.7009 226.1991 441.1868 240.1923H445.8969L450.9604 229.9561 456.1877 240.1923Z" fill="#1a1a18"/>
<path transform="matrix(1,0,0,-1,1,746.45)" d="M470.8616 240.1923C472.5496 240.1923 474.0151 239.9111 475.2584 239.3484 476.5017 238.7857 477.4592 237.9872 478.1307 236.9526 478.8023 235.9182 479.1379 234.6931 479.1379 233.2774 479.1379 231.88 478.8023 230.6594 478.1307 229.6157 477.4592 228.5719 476.5017 227.7734 475.2584 227.2198 474.0151 226.6665 472.5496 226.3895 470.8616 226.3895H467.0229V221.1352H462.6128V240.1923ZM470.6167 229.9833C471.9416 229.9833 472.949 230.269 473.6387 230.8408 474.3283 231.4125 474.673 232.2247 474.673 233.2774 474.673 234.3481 474.3283 235.1696 473.6387 235.7413 472.949 236.3128 471.9416 236.5988 470.6167 236.5988H467.0229V229.9833Z" fill="#1a1a18"/>
<path transform="matrix(1,0,0,-1,1,746.45)" d="M498.8483 240.1923 490.7356 225.11C489.9549 223.6581 489.0158 222.5599 487.9176 221.8158 486.8198 221.0717 485.6264 220.6996 484.3378 220.6996 483.3394 220.6996 482.305 220.9175 481.2341 221.3529L482.296 224.7018C483.0582 224.4657 483.6934 224.3477 484.2017 224.3477 484.746 224.3477 485.2361 224.4793 485.6717 224.7426 486.1074 225.0057 486.5066 225.4187 486.8697 225.9811L487.0329 226.1991 479.5189 240.1923H484.2289L489.2924 229.9561 494.5198 240.1923Z" fill="#1a1a18"/>
<path transform="matrix(1,0,0,-1,1,746.45)" d="M517.8509 240.1923 509.7382 225.11C508.9575 223.6581 508.0184 222.5599 506.9203 221.8158 505.8224 221.0717 504.629 220.6996 503.3404 220.6996 502.342 220.6996 501.3077 220.9175 500.2367 221.3529L501.2986 224.7018C502.0608 224.4657 502.6961 224.3477 503.2043 224.3477 503.7486 224.3477 504.2387 224.4793 504.6744 224.7426 505.11 225.0057 505.5092 225.4187 505.8723 225.9811L506.0356 226.1991 498.5215 240.1923H503.2315L508.2951 229.9561 513.5224 240.1923Z" fill="#1a1a18"/>
<path transform="matrix(1,0,0,-1,1,746.45)" d="M545.3476 228.8126H542.5707V221.1352H538.242V228.8126H535.4107L531.1363 221.1352H526.0456L531.7625 231.0993 526.3994 240.1923H531.0547L535.3291 232.488H538.242V240.1923H542.5707V232.488H545.402L549.7036 240.1923H554.3589L549.023 231.0993 554.7129 221.1352H549.6219Z" fill="#1a1a18"/>
<path transform="matrix(1,0,0,-1,1,746.45)" d="M569.3598 225.2188H560.5118L558.8237 221.1352H554.3045L562.7985 240.1923H567.1545L575.6757 221.1352H571.0476ZM567.9711 228.5674 564.9494 235.8638 561.9274 228.5674Z" fill="#1a1a18"/>
<path transform="matrix(1,0,0,-1,1,746.45)" d="M595.686 240.1923V221.1352H591.2756V228.9487H582.618V221.1352H578.2079V240.1923H582.618V232.6785H591.2756V240.1923Z" fill="#1a1a18"/>
<path transform="matrix(1,0,0,-1,1,746.45)" d="M613.3547 225.2188H604.5066L602.8186 221.1352H598.2993L606.7933 240.1923H611.1493L619.6706 221.1352H615.0424ZM611.966 228.5674 608.9443 235.8638 605.9222 228.5674Z" fill="#1a1a18"/>
<path transform="matrix(1,0,0,-1,1,746.45)" d="M639.0003 220.8084C637.022 220.8084 635.2387 221.235 633.6505 222.088 632.0625 222.9412 630.8192 224.1164 629.9209 225.6137 629.0223 227.111 628.5733 228.7945 628.5733 230.6639 628.5733 232.5334 629.0223 234.2166 629.9209 235.7138 630.8192 237.2114 632.0625 238.3866 633.6505 239.2396 635.2387 240.0925 637.022 240.5191 639.0003 240.5191 640.9786 240.5191 642.757 240.0925 644.3362 239.2396 645.9151 238.3866 647.1584 237.2114 648.066 235.7138 648.9734 234.2166 649.4272 232.5334 649.4272 230.6639 649.4272 228.7945 648.9734 227.111 648.066 225.6137 647.1584 224.1164 645.9151 222.9412 644.3362 222.088 642.757 221.235 640.9786 220.8084 639.0003 220.8084ZM639.0003 224.5654C640.1254 224.5654 641.1419 224.8243 642.0492 225.3413 642.9569 225.8586 643.6692 226.58 644.1866 227.5058 644.7036 228.4313 644.9624 229.4841 644.9624 230.6639 644.9624 231.8437 644.7036 232.8962 644.1866 233.822 643.6692 234.7475 642.9569 235.4689 642.0492 235.9862 641.1419 236.5036 640.1254 236.7621 639.0003 236.7621 637.8749 236.7621 636.8584 236.5036 635.9511 235.9862 635.0437 235.4689 634.3311 234.7475 633.814 233.822 633.2967 232.8962 633.0379 231.8437 633.0379 230.6639 633.0379 229.4841 633.2967 228.4313 633.814 227.5058 634.3311 226.58 635.0437 225.8586 635.9511 225.3413 636.8584 224.8243 637.8749 224.5654 639.0003 224.5654" fill="#1a1a18"/>
<path transform="matrix(1,0,0,-1,1,746.45)" d="M670.3084 240.1923V221.1352H665.898V228.9487H657.2404V221.1352H652.8302V240.1923H657.2404V232.6785H665.898V240.1923ZM673.0308 224.729V217.1877H668.9472V221.1352H665.9796V224.729Z" fill="#1a1a18"/>
<path transform="matrix(1,0,0,-1,1,746.45)" d="M695.6816 224.729V217.1877H691.598V221.1352H678.149V217.1877H674.0654L674.0926 224.729H674.8549C675.9984 224.7653 676.806 225.6001 677.2779 227.2334 677.7496 228.867 678.0402 231.1994 678.149 234.2302L678.3667 240.1923H693.0136V224.729ZM682.0421 233.822C681.9514 231.5531 681.7609 229.6519 681.4704 228.1184 681.1801 226.5846 680.7353 225.455 680.1364 224.729H688.6576V236.5988H682.1237Z" fill="#1a1a18"/>
<path transform="matrix(1,0,0,-1,1,746.45)" d="M707.7421 220.8084C705.7638 220.8084 703.9806 221.235 702.3923 222.088 700.8043 222.9412 699.5611 224.1164 698.6628 225.6137 697.7642 227.111 697.3152 228.7945 697.3152 230.6639 697.3152 232.5334 697.7642 234.2166 698.6628 235.7138 699.5611 237.2114 700.8043 238.3866 702.3923 239.2396 703.9806 240.0925 705.7638 240.5191 707.7421 240.5191 709.7204 240.5191 711.4989 240.0925 713.0781 239.2396 714.657 238.3866 715.9003 237.2114 716.8079 235.7138 717.7153 234.2166 718.1691 232.5334 718.1691 230.6639 718.1691 228.7945 717.7153 227.111 716.8079 225.6137 715.9003 224.1164 714.657 222.9412 713.0781 222.088 711.4989 221.235 709.7204 220.8084 707.7421 220.8084ZM707.7421 224.5654C708.8672 224.5654 709.8837 224.8243 710.7911 225.3413 711.6987 225.8586 712.4111 226.58 712.9284 227.5058 713.4454 228.4313 713.7043 229.4841 713.7043 230.6639 713.7043 231.8437 713.4454 232.8962 712.9284 233.822 712.4111 234.7475 711.6987 235.4689 710.7911 235.9862 709.8837 236.5036 708.8672 236.7621 707.7421 236.7621 706.6168 236.7621 705.6003 236.5036 704.6929 235.9862 703.7855 235.4689 703.0729 234.7475 702.5559 233.822 702.0386 232.8962 701.7797 231.8437 701.7797 230.6639 701.7797 229.4841 702.0386 228.4313 702.5559 227.5058 703.0729 226.58 703.7855 225.8586 704.6929 225.3413 705.6003 224.8243 706.6168 224.5654 707.7421 224.5654" fill="#1a1a18"/>
<path transform="matrix(1,0,0,-1,1,746.45)" d="M730.6651 220.8084C728.6868 220.8084 726.9035 221.235 725.3152 222.088 723.7273 222.9412 722.484 224.1164 721.5857 225.6137 720.6871 227.111 720.2381 228.7945 720.2381 230.6639 720.2381 232.5334 720.6871 234.2166 721.5857 235.7138 722.484 237.2114 723.7273 238.3866 725.3152 239.2396 726.9035 240.0925 728.6868 240.5191 730.6651 240.5191 732.6434 240.5191 734.4218 240.0925 736.001 239.2396 737.5799 238.3866 738.8232 237.2114 739.7308 235.7138 740.6382 234.2166 741.092 232.5334 741.092 230.6639 741.092 228.7945 740.6382 227.111 739.7308 225.6137 738.8232 224.1164 737.5799 222.9412 736.001 222.088 734.4218 221.235 732.6434 220.8084 730.6651 220.8084ZM730.6651 224.5654C731.7901 224.5654 732.8066 224.8243 733.714 225.3413 734.6217 225.8586 735.334 226.58 735.8513 227.5058 736.3684 228.4313 736.6272 229.4841 736.6272 230.6639 736.6272 231.8437 736.3684 232.8962 735.8513 233.822 735.334 234.7475 734.6217 235.4689 733.714 235.9862 732.8066 236.5036 731.7901 236.7621 730.6651 236.7621 729.5397 236.7621 728.5232 236.5036 727.6158 235.9862 726.7085 235.4689 725.9958 234.7475 725.4788 233.822 724.9615 232.8962 724.7027 231.8437 724.7027 230.6639 724.7027 229.4841 724.9615 228.4313 725.4788 227.5058 725.9958 226.58 726.7085 225.8586 727.6158 225.3413 728.5232 224.8243 729.5397 224.5654 730.6651 224.5654" fill="#1a1a18"/>
<path transform="matrix(1,0,0,-1,1,746.45)" d="M743.542 240.1923H748.6058L747.762 227.7507H744.3859ZM746.0739 220.9175C745.3298 220.9175 744.7082 221.1579 744.209 221.639 743.7098 222.12 743.4604 222.7051 743.4604 223.3947 743.4604 224.0847 743.7053 224.6607 744.1954 225.1236 744.6855 225.5865 745.3117 225.8178 746.0739 225.8178 746.8362 225.8178 747.4623 225.5865 747.9524 225.1236 748.4426 224.6607 748.6875 224.0847 748.6875 223.3947 748.6875 222.7051 748.438 222.12 747.9388 221.639 747.4397 221.1579 746.818 220.9175 746.0739 220.9175" fill="#1a1a18"/>
<path transform="matrix(1,0,0,-1,1,746.45)" d="M318.0427 124.4928C313.6555 124.4928 309.6884 125.4461 306.1417 127.353 302.595 129.2596 299.8069 131.904 297.7773 135.2869 295.7477 138.6694 294.7329 142.4931 294.7329 146.7573 294.7329 151.0217 295.7477 154.8451 297.7773 158.2277 299.8069 161.6105 302.595 164.2552 306.1417 166.1618 309.6884 168.0684 313.6759 169.0217 318.1042 169.0217 321.8355 169.0217 325.2081 168.3658 328.2216 167.0536 331.2354 165.7414 333.7673 163.8553 335.8174 161.3954L329.421 155.4908C326.5098 158.853 322.9016 160.5342 318.5963 160.5342 315.9312 160.5342 313.5529 159.95 311.4618 158.7813 309.3707 157.6128 307.7408 155.9829 306.5723 153.8918 305.4039 151.8007 304.8194 149.4224 304.8194 146.7573 304.8194 144.0921 305.4039 141.7139 306.5723 139.6227 307.7408 137.5316 309.3707 135.902 311.4618 134.7333 313.5529 133.5648 315.9312 132.9803 318.5963 132.9803 322.9016 132.9803 326.5098 134.682 329.421 138.0852L335.8174 132.1809C333.7673 129.6797 331.2252 127.7731 328.191 126.4609 325.1568 125.149 321.774 124.4928 318.0427 124.4928" fill="#1a1a18"/>
<path transform="matrix(1,0,0,-1,1,746.45)" d="M374.811 160.1651H361.0341V125.231H351.1933V160.1651H337.4782V168.2836H374.811Z" fill="#1a1a18"/>
<path transform="matrix(1,0,0,-1,1,746.45)" d="M399.7199 168.2836C403.5331 168.2836 406.8442 167.648 409.6528 166.377 412.4614 165.1059 414.6245 163.302 416.1416 160.9648 417.6587 158.6276 418.4172 155.8599 418.4172 152.6618 418.4172 149.5046 417.6587 146.7471 416.1416 144.3895 414.6245 142.0319 412.4614 140.2277 409.6528 138.977 406.8442 137.7264 403.5331 137.1013 399.7199 137.1013H391.0479V125.231H381.0844V168.2836ZM399.1663 145.2197C402.1597 145.2197 404.4353 145.8655 405.9933 147.1572 407.5515 148.4487 408.3304 150.2836 408.3304 152.6618 408.3304 155.0809 407.5515 156.9362 405.9933 158.2277 404.4353 159.5194 402.1597 160.1651 399.1663 160.1651H391.0479V145.2197Z" fill="#1a1a18"/>
<path transform="matrix(1,0,0,-1,1,746.45)" d="M446.1554 124.4928C441.6863 124.4928 437.6577 125.4566 434.0699 127.3836 430.4823 129.3106 427.6735 131.9655 425.6439 135.3484 423.6143 138.731 422.5995 142.5339 422.5995 146.7573 422.5995 150.9806 423.6143 154.7836 425.6439 158.1664 427.6735 161.549 430.4823 164.2039 434.0699 166.1309 437.6577 168.0582 441.6863 169.0217 446.1554 169.0217 450.6248 169.0217 454.6429 168.0582 458.2103 166.1309 461.7774 164.2039 464.586 161.549 466.6363 158.1664 468.6863 154.7836 469.7113 150.9806 469.7113 146.7573 469.7113 142.5339 468.6863 138.731 466.6363 135.3484 464.586 131.9655 461.7774 129.3106 458.2103 127.3836 454.6429 125.4566 450.6248 124.4928 446.1554 124.4928ZM446.1554 132.9803C448.6975 132.9803 450.9938 133.5648 453.0438 134.7333 455.0939 135.902 456.7034 137.5316 457.8718 139.6227 459.0405 141.7139 459.6248 144.0921 459.6248 146.7573 459.6248 149.4224 459.0405 151.8007 457.8718 153.8918 456.7034 155.9829 455.0939 157.6128 453.0438 158.7813 450.9938 159.95 448.6975 160.5342 446.1554 160.5342 443.6133 160.5342 441.3172 159.95 439.2669 158.7813 437.2169 157.6128 435.6077 155.9829 434.4389 153.8918 433.2705 151.8007 432.686 149.4224 432.686 146.7573 432.686 144.0921 433.2705 141.7139 434.4389 139.6227 435.6077 137.5316 437.2169 135.902 439.2669 134.7333 441.3172 133.5648 443.6133 132.9803 446.1554 132.9803" fill="#1a1a18"/>
<path transform="matrix(1,0,0,-1,1,746.45)" d="M477.3994 168.2836H487.3014V140.2379L507.8438 168.2836H517.1922V125.231H507.3517V153.2151L486.8093 125.231H477.3994Z" fill="#1a1a18"/>
<path transform="matrix(1,0,0,-1,1,746.45)" d="M560.7986 160.1651H547.0217V125.231H537.1809V160.1651H523.4658V168.2836H560.7986Z" fill="#1a1a18"/>
<path transform="matrix(1,0,0,-1,1,746.45)" d="M600.4069 133.2264V125.231H567.072V168.2836H599.6075V160.2882H576.974V150.9395H596.9628V143.1901H576.974V133.2264Z" fill="#1a1a18"/>
<path transform="matrix(1,0,0,-1,1,746.45)" d="M646.8423 168.2836V125.231H637.0019V160.1651H622.2407L621.9332 151.1855C621.7282 145.0763 621.2361 140.125 620.4572 136.3323 619.6782 132.5398 618.3763 129.6283 616.5516 127.5987 614.7272 125.5691 612.1746 124.5543 608.8944 124.5543 607.5414 124.5543 605.9013 124.78 603.9743 125.231L604.5891 133.6569C605.1223 133.4931 605.7167 133.4109 606.3729 133.4109 608.7509 133.4109 610.4115 134.8152 611.3546 137.624 612.2976 140.4326 612.8923 144.8303 613.1381 150.8165L613.7532 168.2836Z" fill="#1a1a18"/>
<path transform="matrix(1,0,0,-1,1,746.45)" d="M678.4554 154.1378C683.7038 154.1378 687.7324 152.9691 690.5409 150.6319 693.3495 148.2948 694.7541 144.8303 694.7541 140.2379 694.7541 135.3586 693.2061 131.6375 690.1104 129.075 687.0146 126.5122 682.6581 125.231 677.0409 125.231H657.6058V168.2836H667.5077V154.1378ZM676.4873 132.6115C679.0706 132.6115 681.09 133.2471 682.5455 134.5181 684.0011 135.7892 684.7288 137.6342 684.7288 140.0533 684.7288 144.5227 681.9817 146.7573 676.4873 146.7573H667.5077V132.6115Z" fill="#1a1a18"/>
<path transform="matrix(1,0,0,-1,1,746.45)" d="M722.3077 124.4928C717.9205 124.4928 713.9534 125.4461 710.4067 127.353 706.86 129.2596 704.0718 131.904 702.0422 135.2869 700.0126 138.6694 698.9978 142.4931 698.9978 146.7573 698.9978 151.0217 700.0126 154.8451 702.0422 158.2277 704.0718 161.6105 706.86 164.2552 710.4067 166.1618 713.9534 168.0684 717.9409 169.0217 722.3692 169.0217 726.1004 169.0217 729.4731 168.3658 732.4866 167.0536 735.5004 165.7414 738.0323 163.8553 740.0823 161.3954L733.686 155.4908C730.7748 158.853 727.1666 160.5342 722.8613 160.5342 720.1962 160.5342 717.8179 159.95 715.7268 158.7813 713.6357 157.6128 712.0057 155.9829 710.8373 153.8918 709.6689 151.8007 709.0843 149.4224 709.0843 146.7573 709.0843 144.0921 709.6689 141.7139 710.8373 139.6227 712.0057 137.5316 713.6357 135.902 715.7268 134.7333 717.8179 133.5648 720.1962 132.9803 722.8613 132.9803 727.1666 132.9803 730.7748 134.682 733.686 138.0852L740.0823 132.1809C738.0323 129.6797 735.4902 127.7731 732.456 126.4609 729.4218 125.149 726.0389 124.4928 722.3077 124.4928" fill="#1a1a18"/>
<path transform="matrix(1,0,0,-1,1,746.45)" d="M779.076 160.1651H765.2991V125.231H755.4583V160.1651H741.7431V168.2836H779.076Z" fill="#1a1a18"/>
<path transform="matrix(1,0,0,-1,1,746.45)" d="M815.1786 147.6799C817.8026 146.9007 819.8118 145.6296 821.2059 143.8668 822.6 142.1036 823.297 139.9303 823.297 137.3471 823.297 133.5339 821.8517 130.5612 818.9612 128.4293 816.0704 126.2971 811.9395 125.231 806.5681 125.231H785.3494V168.2836H805.3994C810.4017 168.2836 814.297 167.3201 817.0852 165.3931 819.8734 163.4658 821.2674 160.7187 821.2674 157.1513 821.2674 155.0194 820.7345 153.1434 819.6684 151.524 818.6023 149.9043 817.1056 148.623 815.1786 147.6799ZM795.2513 150.4477H804.5385C806.7115 150.4477 808.3517 150.8882 809.4589 151.7698 810.5658 152.6513 811.1194 153.9533 811.1194 155.6753 811.1194 157.3566 810.5556 158.648 809.428 159.55 808.3003 160.4523 806.6707 160.9033 804.5385 160.9033H795.2513ZM806.199 132.6115C810.8734 132.6115 813.2105 134.4566 813.2105 138.1467 813.2105 141.7139 810.8734 143.4977 806.199 143.4977H795.2513V132.6115Z" fill="#1a1a18"/>
<path transform="matrix(1,0,0,-1,1,746.45)" d="M851.7118 124.4928C847.2427 124.4928 843.2141 125.4566 839.6263 127.3836 836.0388 129.3106 833.2299 131.9655 831.2003 135.3484 829.1707 138.731 828.1559 142.5339 828.1559 146.7573 828.1559 150.9806 829.1707 154.7836 831.2003 158.1664 833.2299 161.549 836.0388 164.2039 839.6263 166.1309 843.2141 168.0582 847.2427 169.0217 851.7118 169.0217 856.1812 169.0217 860.1993 168.0582 863.7667 166.1309 867.3338 164.2039 870.1424 161.549 872.1927 158.1664 874.2427 154.7836 875.2677 150.9806 875.2677 146.7573 875.2677 142.5339 874.2427 138.731 872.1927 135.3484 870.1424 131.9655 867.3338 129.3106 863.7667 127.3836 860.1993 125.4566 856.1812 124.4928 851.7118 124.4928ZM851.7118 132.9803C854.2539 132.9803 856.5503 133.5648 858.6003 134.7333 860.6503 135.902 862.2598 137.5316 863.4283 139.6227 864.597 141.7139 865.1812 144.0921 865.1812 146.7573 865.1812 149.4224 864.597 151.8007 863.4283 153.8918 862.2598 155.9829 860.6503 157.6128 858.6003 158.7813 856.5503 159.95 854.2539 160.5342 851.7118 160.5342 849.1697 160.5342 846.8736 159.95 844.8233 158.7813 842.7733 157.6128 841.1641 155.9829 839.9954 153.8918 838.8269 151.8007 838.2424 149.4224 838.2424 146.7573 838.2424 144.0921 838.8269 141.7139 839.9954 139.6227 841.1641 137.5316 842.7733 135.902 844.8233 134.7333 846.8736 133.5648 849.1697 132.9803 851.7118 132.9803" fill="#1a1a18"/>
<path transform="matrix(1,0,0,-1,1,746.45)" d="M297.6851 109.3289H307.5871V81.2832L328.1295 109.3289H337.4779V66.2763H327.6374V94.2605L307.095 66.2763H297.6851Z" fill="#1a1a18"/>
<path transform="matrix(1,0,0,-1,1,746.45)" d="M384.2209 109.3289C388.0341 109.3289 391.3452 108.6934 394.1538 107.4223 396.9624 106.1512 399.1255 104.3473 400.6426 102.0101 402.1597 99.6729 402.9182 96.9052 402.9182 93.7071 402.9182 90.5499 402.1597 87.7924 400.6426 85.4348 399.1255 83.0772 396.9624 81.273 394.1538 80.0223 391.3452 78.7717 388.0341 78.1466 384.2209 78.1466H375.5489V66.2763H365.5854V109.3289ZM383.6673 86.2651C386.6607 86.2651 388.9363 86.9108 390.4943 88.2026 392.0525 89.494 392.8314 91.3289 392.8314 93.7071 392.8314 96.1262 392.0525 97.9815 390.4943 99.273 388.9363 100.5647 386.6607 101.2105 383.6673 101.2105H375.5489V86.2651Z" fill="#1a1a18"/>
<path transform="matrix(1,0,0,-1,1,746.45)" d="M442.834 74.2717V66.2763H409.4991V109.3289H442.0346V101.3335H419.4011V91.9848H439.3899V84.2355H419.4011V74.2717Z" fill="#1a1a18"/>
<path transform="matrix(1,0,0,-1,1,746.45)" d="M490.0691 66.2763 490.0076 92.0463 477.3379 70.8276H472.9096L460.2396 91.5542V66.2763H450.8912V109.3289H459.1327L475.2465 82.5749 491.1146 109.3289H499.356L499.4175 66.2763Z" fill="#1a1a18"/>
<path transform="matrix(1,0,0,-1,1,746.45)" d="M530.6615 65.5381C526.1924 65.5381 522.1638 66.5019 518.576 68.4289 514.9885 70.3559 512.1797 73.0108 510.15 76.3937 508.1204 79.7763 507.1056 83.5792 507.1056 87.8026 507.1056 92.0259 508.1204 95.8289 510.15 99.2117 512.1797 102.5943 514.9885 105.2493 518.576 107.1763 522.1638 109.1035 526.1924 110.067 530.6615 110.067 535.1309 110.067 539.149 109.1035 542.7164 107.1763 546.2836 105.2493 549.0921 102.5943 551.1424 99.2117 553.1924 95.8289 554.2174 92.0259 554.2174 87.8026 554.2174 83.5792 553.1924 79.7763 551.1424 76.3937 549.0921 73.0108 546.2836 70.3559 542.7164 68.4289 539.149 66.5019 535.1309 65.5381 530.6615 65.5381ZM530.6615 74.0256C533.2037 74.0256 535.5 74.6101 537.55 75.7786 539.6 76.9473 541.2095 78.5769 542.378 80.6681 543.5467 82.7592 544.1309 85.1374 544.1309 87.8026 544.1309 90.4677 543.5467 92.846 542.378 94.9371 541.2095 97.0282 539.6 98.6581 537.55 99.8266 535.5 100.9953 533.2037 101.5795 530.6615 101.5795 528.1194 101.5795 525.8234 100.9953 523.7731 99.8266 521.7231 98.6581 520.1138 97.0282 518.9451 94.9371 517.7767 92.846 517.1922 90.4677 517.1922 87.8026 517.1922 85.1374 517.7767 82.7592 518.9451 80.6681 520.1138 78.5769 521.7231 76.9473 523.7731 75.7786 525.8234 74.6101 528.1194 74.0256 530.6615 74.0256" fill="#1a1a18"/>
<path transform="matrix(1,0,0,-1,1,746.45)" d="M601.3911 109.3289V66.2763H591.4273V83.9279H571.8691V66.2763H561.9056V109.3289H571.8691V92.3539H591.4273V109.3289Z" fill="#1a1a18"/>
<path transform="matrix(1,0,0,-1,1,746.45)" d="M645.0588 101.2105H631.2818V66.2763H621.4411V101.2105H607.7259V109.3289H645.0588Z" fill="#1a1a18"/>
<path transform="matrix(1,0,0,-1,1,746.45)" d="M684.6874 96.1469V89.4988H681.0874V92.9789H669.2312V89.4988H665.6312L665.6553 96.1469H666.3271C667.3351 96.179 668.0472 96.9148 668.4633 98.3548 668.8791 99.7948 669.1351 101.8511 669.2312 104.523L669.4231 109.779H682.3352V96.1469ZM672.6631 104.163C672.5832 102.1629 672.4154 100.4871 672.1591 99.1349 671.9031 97.7831 671.5111 96.787 670.9833 96.1469H678.4954V106.611H672.7351Z" fill="#c9141d"/>
<path transform="matrix(1,0,0,-1,1,746.45)" d="M695.3193 92.6909C693.5751 92.6909 692.0033 93.0668 690.6033 93.8188 689.2033 94.5709 688.1071 95.6069 687.3151 96.927 686.5231 98.2468 686.1271 99.7311 686.1271 101.3788 686.1271 103.0269 686.5231 104.5108 687.3151 105.8309 688.1071 107.151 689.2033 108.1871 690.6033 108.9391 692.0033 109.6909 693.5751 110.067 695.3193 110.067 697.0632 110.067 698.6313 109.6909 700.0234 108.9391 701.4152 108.1871 702.5114 107.151 703.3113 105.8309 704.1112 104.5108 704.5112 103.0269 704.5112 101.3788 704.5112 99.7311 704.1112 98.2468 703.3113 96.927 702.5114 95.6069 701.4152 94.5709 700.0234 93.8188 698.6313 93.0668 697.0632 92.6909 695.3193 92.6909ZM695.3193 96.0029C696.3111 96.0029 697.2072 96.2308 698.0074 96.6869 698.8073 97.143 699.4352 97.7788 699.8913 98.5949 700.3474 99.411 700.5753 100.3391 700.5753 101.3788 700.5753 102.4189 700.3474 103.3469 699.8913 104.163 699.4352 104.9791 698.8073 105.6149 698.0074 106.071 697.2072 106.5271 696.3111 106.755 695.3193 106.755 694.3272 106.755 693.4311 106.5271 692.6312 106.071 691.8313 105.6149 691.2031 104.9791 690.7473 104.163 690.2912 103.3469 690.0633 102.4189 690.0633 101.3788 690.0633 100.3391 690.2912 99.411 690.7473 98.5949 691.2031 97.7788 691.8313 97.143 692.6312 96.6869 693.4311 96.2308 694.3272 96.0029 695.3193 96.0029" fill="#c9141d"/>
<path transform="matrix(1,0,0,-1,1,746.45)" d="M722.7995 92.9789 722.7754 103.0348 717.8315 94.7548H716.1035L711.1593 102.8429V92.9789H707.5114V109.779H710.7273L717.0154 99.339 723.2074 109.779H726.4236L726.4474 92.9789Z" fill="#c9141d"/>
<path transform="matrix(1,0,0,-1,1,746.45)" d="M738.6395 92.6909C736.8953 92.6909 735.3235 93.0668 733.9235 93.8188 732.5235 94.5709 731.4273 95.6069 730.6353 96.927 729.8433 98.2468 729.4473 99.7311 729.4473 101.3788 729.4473 103.0269 729.8433 104.5108 730.6353 105.8309 731.4273 107.151 732.5235 108.1871 733.9235 108.9391 735.3235 109.6909 736.8953 110.067 738.6395 110.067 740.3834 110.067 741.9515 109.6909 743.3436 108.9391 744.7354 108.1871 745.8316 107.151 746.6315 105.8309 747.4314 104.5108 747.8314 103.0269 747.8314 101.3788 747.8314 99.7311 747.4314 98.2468 746.6315 96.927 745.8316 95.6069 744.7354 94.5709 743.3436 93.8188 741.9515 93.0668 740.3834 92.6909 738.6395 92.6909ZM738.6395 96.0029C739.6313 96.0029 740.5274 96.2308 741.3276 96.6869 742.1275 97.143 742.7554 97.7788 743.2115 98.5949 743.6676 99.411 743.8955 100.3391 743.8955 101.3788 743.8955 102.4189 743.6676 103.3469 743.2115 104.163 742.7554 104.9791 742.1275 105.6149 741.3276 106.071 740.5274 106.5271 739.6313 106.755 738.6395 106.755 737.6474 106.755 736.7513 106.5271 735.9514 106.071 735.1515 105.6149 734.5233 104.9791 734.0675 104.163 733.6114 103.3469 733.3835 102.4189 733.3835 101.3788 733.3835 100.3391 733.6114 99.411 734.0675 98.5949 734.5233 97.7788 735.1515 97.143 735.9514 96.6869 736.7513 96.2308 737.6474 96.0029 738.6395 96.0029" fill="#c9141d"/>
<path transform="matrix(1,0,0,-1,1,746.45)" d="M762.4718 101.7388C763.4957 101.435 764.2797 100.9389 764.8237 100.2509 765.3677 99.563 765.6398 98.7148 765.6398 97.7068 765.6398 96.2189 765.0757 95.059 763.9478 94.227 762.8196 93.3951 761.2075 92.9789 759.1116 92.9789H750.8316V109.779H758.6555C760.6077 109.779 762.1277 109.4029 763.2156 108.6511 764.3035 107.8991 764.8478 106.827 764.8478 105.4349 764.8478 104.603 764.6397 103.8711 764.2236 103.2389 763.8077 102.6071 763.2235 102.1071 762.4718 101.7388ZM754.6955 102.8188H758.3196C759.1677 102.8188 759.8075 102.9909 760.2395 103.335 760.6715 103.6789 760.8878 104.1868 760.8878 104.8589 760.8878 105.5149 760.6675 106.0189 760.2276 106.3709 759.7877 106.723 759.1516 106.899 758.3196 106.899H754.6955ZM758.9676 95.8589C760.7917 95.8589 761.7036 96.5789 761.7036 98.0189 761.7036 99.411 760.7917 100.1069 758.9676 100.1069H754.6955V95.8589Z" fill="#c9141d"/>
<path transform="matrix(1,0,0,-1,1,746.45)" d="M665.6312 82.9264H669.4951V71.9824L677.5112 82.9264H681.1594V66.1263H677.3193V77.0462L669.3032 66.1263H665.6312Z" fill="#c9141d"/>
<path transform="matrix(1,0,0,-1,1,746.45)" d="M698.6316 72.8943H695.9435V66.1263H692.0796V82.9264H695.9435V76.1343H698.7274L703.1435 82.9264H707.2475L701.7514 74.8142 707.4156 66.1263H702.9995Z" fill="#c9141d"/>
<path transform="matrix(1,0,0,-1,1,746.45)" d="M720.8799 74.8862C721.9037 74.5824 722.6878 74.0863 723.2318 73.3983 723.7757 72.7104 724.0479 71.8622 724.0479 70.8542 724.0479 69.3663 723.4838 68.2064 722.3559 67.3744 721.2277 66.5425 719.6156 66.1263 717.5197 66.1263H709.2397V82.9264H717.0636C719.0158 82.9264 720.5357 82.5503 721.6237 81.7985 722.7116 81.0465 723.2559 79.9744 723.2559 78.5823 723.2559 77.7504 723.0478 77.0185 722.6317 76.3863 722.2158 75.7545 721.6316 75.2545 720.8799 74.8862ZM713.1036 75.9662H716.7277C717.5758 75.9662 718.2156 76.1383 718.6476 76.4824 719.0796 76.8263 719.2959 77.3342 719.2959 78.0063 719.2959 78.6623 719.0756 79.1663 718.6357 79.5183 718.1957 79.8704 717.5597 80.0464 716.7277 80.0464H713.1036ZM717.3757 69.0063C719.1998 69.0063 720.1117 69.7263 720.1117 71.1663 720.1117 72.5584 719.1998 73.2543 717.3757 73.2543H713.1036V69.0063Z" fill="#c9141d"/>
<path transform="matrix(1,0,0,-1,1,746.45)" d="M738.4958 69.7263H730.6957L729.2078 66.1263H725.2237L732.7117 82.9264H736.5518L744.0639 66.1263H739.984ZM737.2718 72.6783 734.6078 79.1104 731.9438 72.6783Z" fill="#c9141d"/>
<path transform="matrix(1,0,0,-1,1,746.45)" d="M753.5679 82.9264C755.0558 82.9264 756.3478 82.6784 757.444 82.1823 758.5398 81.6863 759.384 80.9824 759.9759 80.0705 760.568 79.1583 760.864 78.0783 760.864 76.8302 760.864 75.5983 760.568 74.5223 759.9759 73.6024 759.384 72.6823 758.5398 71.9785 757.444 71.4903 756.3478 71.0025 755.0558 70.7584 753.5679 70.7584H750.1839V66.1263H746.2959V82.9264ZM753.3519 73.9264C754.52 73.9264 755.4078 74.1784 756.0159 74.6824 756.6239 75.1864 756.9281 75.9025 756.9281 76.8302 756.9281 77.7745 756.6239 78.4984 756.0159 79.0024 755.4078 79.5064 754.52 79.7584 753.3519 79.7584H750.1839V73.9264Z" fill="#c9141d"/>
<path transform="matrix(1,0,0,-1,1,746.45)" d="M775.8162 79.7584H770.44V66.1263H766.6002V79.7584H761.2481V82.9264H775.8162Z" fill="#c9141d"/>
<path transform="matrix(1,0,0,-1,1,746.45)" d="M778.2642 82.9264H782.1281V71.9824L790.1442 82.9264H793.7923V66.1263H789.9523V77.0462L781.9362 66.1263H778.2642Z" fill="#c9141d"/>
<path transform="matrix(1,0,0,-1,1,746.45)" d="M805.2403 82.9264C806.7283 82.9264 808.0203 82.6784 809.1164 82.1823 810.2123 81.6863 811.0565 80.9824 811.6483 80.0705 812.2405 79.1583 812.5364 78.0783 812.5364 76.8302 812.5364 75.5983 812.2405 74.5223 811.6483 73.6024 811.0565 72.6823 810.2123 71.9785 809.1164 71.4903 808.0203 71.0025 806.7283 70.7584 805.2403 70.7584H801.8563V66.1263H797.9683V82.9264ZM805.0243 73.9264C806.1925 73.9264 807.0803 74.1784 807.6883 74.6824 808.2964 75.1864 808.6005 75.9025 808.6005 76.8302 808.6005 77.7745 808.2964 78.4984 807.6883 79.0024 807.0803 79.5064 806.1925 79.7584 805.0243 79.7584H801.8563V73.9264Z" fill="#c9141d"/>
<path transform="matrix(1,0,0,-1,1,746.45)" d="M814.5045 82.9264H818.9685L818.2244 71.9583H815.2483ZM816.7365 65.9344C816.0803 65.9344 815.5324 66.1465 815.0924 66.5702 814.6525 66.9943 814.4325 67.5102 814.4325 68.1182 814.4325 68.7263 814.6485 69.2342 815.0805 69.6424 815.5125 70.0503 816.0644 70.2544 816.7365 70.2544 817.4083 70.2544 817.9605 70.0503 818.3925 69.6424 818.8245 69.2342 819.0405 68.7263 819.0405 68.1182 819.0405 67.5102 818.8206 66.9943 818.3803 66.5702 817.9404 66.1465 817.3925 65.9344 816.7365 65.9344" fill="#c9141d"/>
<path transform="matrix(1,0,0,-1,1,746.45)" stroke-width="2.126" stroke-linecap="butt" stroke-miterlimit="22.925585" stroke-linejoin="miter" fill="none" stroke="#c9141d" d="M294.7329 198.1434H875.2677"/>
<path transform="matrix(1,0,0,-1,1,746.45)" d="M524.34 487.9097V624.3259C524.34 625.1187 524.7743 625.8104 525.4177 626.1758L548.2585 641.2564V662.5738H565.2607V652.4821L593.886 671.3821C594.6474 671.8861 595.6155 671.8346 596.3114 671.3246L609.2453 663.0883 622.1792 671.3246C622.8751 671.8346 623.8431 671.8861 624.6045 671.3821L693.0729 626.1758C693.7163 625.8104 694.1506 625.1187 694.1506 624.3259V487.9097H689.8986V623.1875L623.4089 667.0877 613.1869 660.5782 666.2537 626.7847C667.2396 626.1565 667.5296 624.8472 666.9014 623.8613 666.2733 622.8754 664.9639 622.5854 663.978 623.2136L609.2453 658.0681 554.5125 623.2136C553.5266 622.5854 552.2173 622.8754 551.5892 623.8613 550.961 624.8472 551.251 626.1565 552.2369 626.7847L605.3037 660.5782 595.0817 667.0877 528.592 623.1875V487.9097ZM552.5104 644.0638 561.0087 649.6747V658.3218H552.5104Z" fill="#ffffff"/>
<path transform="matrix(1,0,0,-1,1,746.45)" d="M773.0731 485.3886C772.702 487.3876 774.0921 488.9786 775.6869 489.2562 776.7609 489.443 777.6221 489.1603 778.282 488.6609 780.6056 486.9014 779.6758 483.2895 776.9123 482.7864 774.9524 482.4295 773.3665 483.8074 773.0731 485.3886ZM774.0465 493.1501C772.4483 492.6433 773.3112 492.3595 771.8641 493.4494 770.7526 494.2868 770.8499 494.4552 769.7489 493.4551 769.4456 493.1802 769.1533 492.8763 768.8815 492.5682 768.7312 492.3981 768.1584 491.8414 768.1714 491.5454 768.1844 491.2486 769.602 489.7573 769.6474 489.5147 769.6125 489.2916 769.2834 488.6708 769.1788 488.3102 768.5036 488.173 767.7215 488.0772 767.0282 487.9791 766.2535 487.8692 766.425 487.4525 766.4298 486.0941 766.4315 485.6888 766.4326 485.2843 766.4289 484.8786 766.4247 484.384 766.4936 484.206 766.9553 484.1362 769.6828 483.7263 768.9886 484.0418 769.4084 483.1169 769.7554 482.3527 769.8447 482.7387 768.761 481.3472 768.0875 480.4826 767.8641 480.4892 769.3435 479.0477L770.3493 478.1177C770.8601 477.6769 770.9431 477.8878 771.6144 478.404 772.0067 478.7059 772.3426 478.9466 772.7148 479.2414 773.0793 479.5302 773.0915 479.1419 774.059 478.9089 774.1312 478.2078 774.2792 477.4584 774.3821 476.7443 774.4935 475.9758 774.7991 476.1493 776.3003 476.1493 777.848 476.149 778.0867 475.9821 778.2463 476.7236 778.3211 477.0711 778.3702 477.436 778.4271 477.8033 778.6372 479.1626 778.2412 478.7289 779.7688 479.3834L781.473 478.0344C781.9614 477.6823 782.4702 478.2027 782.8889 478.6503L783.6817 479.4313C783.8308 479.5665 783.9045 479.6912 784.0406 479.8395 784.2645 480.0835 784.6231 480.4376 784.3059 480.8231 784.1038 481.0686 783.095 482.315 782.9563 482.5837L783.4439 483.715C783.7061 483.863 785.1379 484.0109 785.5656 484.069 786.3925 484.1819 786.1657 484.5192 786.183 485.9592 786.1881 486.3801 786.1805 486.8008 786.181 487.2214 786.1819 487.7099 786.1054 487.8454 785.6402 487.9151 784.8995 488.0256 784.1846 488.1572 783.4453 488.2456 783.343 488.7238 783.0893 489.0895 782.943 489.5147 783.093 489.7797 783.9456 490.8104 784.2518 491.2393 784.6685 491.8224 783.6582 492.5585 783.2239 493.0177 782.9022 493.3576 782.7627 493.4934 782.4699 493.7496 781.6156 494.498 782.0011 494.2956 779.7209 492.6903 779.5403 492.7445 779.3802 492.8343 779.2021 492.9106 778.538 493.1966 778.585 493.0101 778.5238 493.3182L778.3903 494.2568C778.0963 496.2152 778.5235 495.9054 775.6702 495.9009 775.2688 495.9003 774.6545 496.0225 774.4677 495.669 774.3042 495.36 774.0862 493.6099 774.0465 493.1501" fill="#fdde5a" fill-rule="evenodd"/>
<path transform="matrix(1,0,0,-1,1,746.45)" d="M789.9965 471.9237C789.7187 473.4213 790.7601 474.6132 791.9549 474.821 792.7594 474.961 793.4049 474.7493 793.8989 474.3751 795.64 473.057 794.9432 470.3511 792.8731 469.9743 791.4047 469.7067 790.2164 470.7391 789.9965 471.9237ZM790.7258 477.7384C789.5285 477.3586 790.1751 477.1463 789.0911 477.9626 788.2583 478.59 788.3311 478.7161 787.5062 477.9669 787.2789 477.7611 787.0601 477.5332 786.8563 477.3025 786.744 477.1749 786.3148 476.7579 786.3245 476.5363 786.3341 476.314 787.3963 475.1966 787.4303 475.0149 787.4039 474.8477 787.1576 474.3825 787.0791 474.1126 786.5734 474.0097 785.9874 473.938 785.4678 473.8643 784.8876 473.7821 785.016 473.47 785.0197 472.4524 785.0208 472.1485 785.022 471.8455 785.0191 471.5416 785.0157 471.1711 785.0676 471.0376 785.4134 470.9854 787.4566 470.6785 786.9368 470.9146 787.2511 470.2218 787.5111 469.6492 787.578 469.9386 786.7661 468.896 786.2615 468.2483 786.0943 468.2531 787.2024 467.1731L787.9561 466.4764C788.3388 466.1461 788.4009 466.3043 788.904 466.691 789.1977 466.9172 789.4494 467.0974 789.7283 467.3183 790.0013 467.5348 790.0106 467.2437 790.7352 467.0694 790.7893 466.5441 790.9002 465.9826 790.9775 465.4477 791.0606 464.872 791.2899 465.0018 792.4144 465.0018 793.5741 465.0015 793.7529 464.8765 793.8723 465.4321 793.9284 465.6923 793.965 465.9659 794.0078 466.2411 794.1651 467.2593 793.8683 466.9345 795.0129 467.4249L796.2897 466.414C796.6553 466.1504 797.0369 466.5402 797.3504 466.8755L797.9443 467.4606C798.0562 467.5618 798.1112 467.6553 798.2133 467.7664 798.3811 467.9493 798.6498 468.2146 798.412 468.5031 798.2606 468.6871 797.5046 469.6211 797.4009 469.8224L797.7662 470.6697C797.9627 470.7805 799.0353 470.8916 799.3559 470.935 799.9753 471.0197 799.8052 471.2723 799.8182 472.3512 799.8222 472.6664 799.8165 472.9816 799.8168 473.2968 799.8174 473.6628 799.7601 473.7643 799.4115 473.8164 798.8567 473.8995 798.3213 473.9978 797.7674 474.0639 797.6906 474.4222 797.5006 474.6963 797.3909 475.0149 797.5032 475.2133 798.1421 475.9855 798.3714 476.3069 798.6835 476.7437 797.927 477.2954 797.6015 477.6392 797.3603 477.894 797.256 477.9955 797.0366 478.1877 796.3965 478.7484 796.6854 478.5968 794.9769 477.394 794.8417 477.4346 794.7218 477.5017 794.5886 477.559 794.0908 477.7733 794.1263 477.6335 794.0803 477.8646L793.9803 478.5676C793.76 480.0348 794.0801 479.8026 791.9422 479.7992 791.6417 479.7989 791.1814 479.8902 791.0416 479.6254 790.9189 479.3939 790.7556 478.0828 790.7258 477.7384" fill="#fdde5a" fill-rule="evenodd"/>
</g>
</svg>
